<svg width="12" height="12" viewBox="0 0 12 12" fill="#303030" xmlns="http://www.w3.org/2000/svg">
    <path d="M9.71397 0.0112877C9.45628 0.0653124 9.47756 0.0441723 7.53427 1.97025L5.68554 3.80472L3.83445 1.9679C2.00936 0.15457 1.94317 0.0958471 1.74931 0.0418234C1.62874 0.00658989 1.35687 0.0159855 1.24103 0.0582657C1.04954 0.128732 0.98807 0.175709 0.576716 0.59146C0.0778909 1.08942 0.0471575 1.14345 0.0471575 1.49108C0.0471575 1.91153 -0.0875963 1.74946 2.007 3.83526L3.82972 5.64859L1.98336 7.48775C0.571988 8.89238 0.127537 9.35041 0.0849832 9.43497C-0.0332219 9.6816 -0.0284937 9.96582 0.101532 10.2171C0.172455 10.3581 0.846224 11.0486 1.00462 11.1403C1.27176 11.3 1.56018 11.3211 1.83205 11.2037C1.97626 11.1403 2.08974 11.0322 3.82972 9.30813L5.67372 7.48071L7.41134 9.20948C8.36643 10.1584 9.21042 10.9852 9.2837 11.0416C9.51775 11.2225 9.72106 11.2788 9.98584 11.2366C10.2223 11.199 10.331 11.1215 10.7755 10.6775C11.2814 10.1749 11.3239 10.1021 11.3239 9.77086C11.3239 9.38565 11.4327 9.51483 9.3499 7.44548L7.52954 5.63684L9.37118 3.80472C11.4729 1.71187 11.3476 1.85985 11.3476 1.46759C11.3476 1.12465 11.2956 1.03775 10.7991 0.546831C10.4185 0.171011 10.2955 0.0770559 10.1419 0.0324278C10.0308 -0.00045681 9.82036 -0.00985241 9.71397 0.0112877Z"/>
</svg>
