<svg width="18" height="18" viewBox="0 0 18 18" fill="#131313" xmlns="http://www.w3.org/2000/svg">
    <path d="M2.34521 12.8674V1.73829C2.34521 1.65086 2.37093 1.56344 2.41721 1.48629C2.51493 1.33201 2.68464 1.28058 2.94693 1.28058H3.54864C3.87779 1.28058 4.14521 1.44001 4.14521 1.64572V12.1423C4.14521 12.5074 3.95493 12.8417 3.64636 13.032C3.46636 13.14 3.15264 13.2326 2.94179 13.2326C2.61264 13.2326 2.34521 13.0732 2.34521 12.8674Z"/>
    <path d="M11.34 3.06514H2.97255C2.64341 3.06514 2.37598 2.79771 2.37598 2.46857V1.86171C2.37598 1.53257 2.57141 1.28571 2.90569 1.28571L11.9468 1.26514C12.276 1.26514 12.5434 1.53257 12.5434 1.86171C12.5434 2.52514 12.0034 3.06514 11.34 3.06514Z"/>
    <path d="M6.96844 16.9251C6.82958 16.8223 6.75244 16.6525 6.75244 16.4777V5.36912C6.75244 5.28169 6.77816 5.19426 6.82444 5.11712C6.92216 4.96284 7.09187 4.91141 7.35416 4.91141H7.96101C8.29016 4.91141 8.55758 5.07084 8.55758 5.27655V16.668C8.55758 16.8737 8.29016 17.0331 7.96101 17.0331H7.35416C7.18444 17.0331 7.06101 16.992 6.96844 16.9251Z"/>
    <path d="M16.0457 6.69598H7.37489C7.04575 6.69598 6.77832 6.42855 6.77832 6.09941V5.49255C6.77832 5.16341 6.97375 4.91655 7.30803 4.91655L16.0457 4.89084C16.3749 4.89084 16.6423 5.15827 16.6423 5.48741V6.09427C16.6372 6.42855 16.38 6.69598 16.0457 6.69598Z"/>
    <path d="M16.6013 5.28172C16.6425 5.36915 16.6631 5.46172 16.6631 5.55943V16.6063C16.6631 16.6937 16.6373 16.7811 16.5911 16.8583C16.4933 17.0126 16.3236 17.064 16.0613 17.064H15.4545C15.1253 17.064 14.8579 16.9046 14.8579 16.6989V5.44629C14.8579 5.24058 15.1253 5.08115 15.4545 5.08115H16.0613C16.3391 5.07601 16.4933 5.06058 16.6013 5.28172Z"/>
    <path d="M7.36487 15.2794H16.0357C16.3649 15.2794 16.6323 15.5468 16.6323 15.876V16.4828C16.6323 16.812 16.4369 17.0588 16.1026 17.0588L7.37001 17.0794C7.04087 17.0794 6.77344 16.812 6.77344 16.4828V15.876C6.77344 15.5468 7.03572 15.2794 7.36487 15.2794Z"/>
</svg>
