<svg 
   width="15" 
   height="19" 
   viewBox="0 0 15 19" 
   fill="none" 
>
   <path 
      d="M5.201 5.74571C3.3162 8.43611 1.7772 10.6439 1.781 10.6534C1.7886 10.6838 7.4126 14.6111 7.4278 14.5959C7.4373 14.5864 8.982 12.3824 10.863 9.69771C13.4888 5.94901 14.2754 4.81091 14.2583 4.79381C14.2317 4.76911 8.6419 0.855109 8.6324 0.855109C8.6286 0.855109 7.0839 3.05531 5.201 5.74571Z" 
      fill="#303030"
   />
   <path 
      d="M1.306 11.6414C1.306 11.6699 1.2927 11.839 1.2775 12.0176C1.2338 12.5059 1.1597 13.3476 1.097 14.0696C0.967799 15.5744 0.943099 15.8575 0.906999 16.2451C0.886099 16.4693 0.848099 16.9101 0.821499 17.2236C0.794899 17.5371 0.764499 17.8696 0.756899 17.9646C0.747399 18.0577 0.741699 18.1375 0.745499 18.1413C0.747399 18.1451 0.817699 18.1166 0.899399 18.0767C0.982999 18.0387 1.097 17.9874 1.154 17.9608C1.211 17.9342 1.3649 17.862 1.4941 17.8012C1.6214 17.7385 1.7297 17.6891 1.7335 17.6891C1.7392 17.6891 1.9805 17.577 2.3035 17.4231C2.5087 17.3262 2.7576 17.2103 2.8735 17.1571C2.9267 17.1343 3.073 17.064 3.2022 17.0032C3.3314 16.9405 3.4397 16.8911 3.4435 16.8911C3.4473 16.8911 3.5575 16.8398 3.6905 16.7771C3.8235 16.7144 3.9337 16.6631 3.9394 16.6631C3.9432 16.6631 4.0515 16.6137 4.1788 16.551C4.4999 16.399 4.6918 16.3078 4.859 16.2318C4.9369 16.1938 5.0566 16.1387 5.125 16.1083C5.1934 16.076 5.3207 16.0152 5.41 15.9753C5.4993 15.9335 5.619 15.8765 5.676 15.8518C5.885 15.7549 6.056 15.6751 6.5367 15.449L6.7058 15.3692L6.6602 15.335C6.6089 15.297 1.3687 11.6262 1.3307 11.6034C1.3136 11.592 1.306 11.6034 1.306 11.6414Z" 
      fill="#303030"
   />
</svg>
