<svg width="15" height="19" viewBox="0 0 15 19" fill="#303030" xmlns="http://www.w3.org/2000/svg">
    <path d="M5.20101 5.74546C3.31621 8.43586 1.77721 10.6437 1.78101 10.6532C1.78861 10.6836 7.41261 14.6109 7.42781 14.5957C7.43731 14.5862 8.98201 12.3822 10.863 9.69746C13.4888 5.94876 14.2754 4.81066 14.2583 4.79356C14.2317 4.76886 8.64191 0.854863 8.63241 0.854863C8.62861 0.854863 7.08391 3.05506 5.20101 5.74546Z"/>
    <path d="M1.30601 11.6414C1.30601 11.6699 1.29271 11.839 1.27751 12.0176C1.23381 12.5059 1.15971 13.3476 1.09701 14.0696C0.967814 15.5744 0.943114 15.8575 0.907014 16.2451C0.886114 16.4693 0.848114 16.9101 0.821514 17.2236C0.794914 17.5371 0.764514 17.8696 0.756914 17.9646C0.747414 18.0577 0.741714 18.1375 0.745514 18.1413C0.747414 18.1451 0.817714 18.1166 0.899414 18.0767C0.983014 18.0387 1.09701 17.9874 1.15401 17.9608C1.21101 17.9342 1.36491 17.862 1.49411 17.8012C1.62141 17.7385 1.72971 17.6891 1.73351 17.6891C1.73921 17.6891 1.98051 17.577 2.30351 17.4231C2.50871 17.3262 2.75761 17.2103 2.87351 17.1571C2.92671 17.1343 3.07301 17.064 3.20221 17.0032C3.33141 16.9405 3.43971 16.8911 3.44351 16.8911C3.44731 16.8911 3.55751 16.8398 3.69051 16.7771C3.82351 16.7144 3.93371 16.6631 3.93941 16.6631C3.94321 16.6631 4.05151 16.6137 4.17881 16.551C4.49991 16.399 4.69181 16.3078 4.85901 16.2318C4.93691 16.1938 5.05661 16.1387 5.12501 16.1083C5.19341 16.076 5.32071 16.0152 5.41001 15.9753C5.49931 15.9335 5.61901 15.8765 5.67601 15.8518C5.88501 15.7549 6.05601 15.6751 6.53671 15.449L6.70581 15.3692L6.66021 15.335C6.60891 15.297 1.36871 11.6262 1.33071 11.6034C1.31361 11.592 1.30601 11.6034 1.30601 11.6414Z"/>
</svg>
