<svg width="20" height="20" viewBox="0 0 20 20" fill="currentColor" xmlns="http://www.w3.org/2000/svg">
    <path d="M10.5867 19.8666H9.42666C8.77333 19.8666 8.25333 19.3466 8.25333 18.6933V1.43994C8.25333 0.786602 8.77333 0.266602 9.42666 0.266602H10.5867C11.24 0.266602 11.76 0.786602 11.76 1.43994V18.6933C11.76 19.3333 11.2267 19.8666 10.5867 19.8666Z" />
    <path d="M0.266663 10.6532V9.46655C0.266663 8.81321 0.786663 8.29321 1.44 8.29321H18.56C19.2133 8.29321 19.7333 8.81321 19.7333 9.46655V10.6532C19.7333 11.3065 19.2133 11.8265 18.56 11.8265H1.44C0.786663 11.8265 0.266663 11.3065 0.266663 10.6532Z" />
</svg>
