<svg width="23" height="25" viewBox="0 0 23 25" fill="#303030" xmlns="http://www.w3.org/2000/svg">
    <path d="M8.16765 0.559515C6.19153 0.790138 4.18717 1.76798 2.70037 3.21629C1.27945 4.60925 0.347844 6.40811 0.0655404 8.30844C-0.0662013 9.24016 0.00907964 11.1682 0.216102 11.9154C0.931271 14.5076 2.8133 16.7954 5.20347 17.9577C6.53029 18.6127 7.97945 18.9355 9.53212 18.9263C11.2636 18.9263 12.7692 18.5112 14.2936 17.6072L15.0747 17.1459L15.2817 17.3581C15.3852 17.478 16.8344 19.0647 18.4906 20.8912C20.1467 22.7178 21.5677 24.2675 21.6429 24.3321C21.7276 24.3967 21.9347 24.4705 22.1135 24.4982C22.7157 24.5996 23.205 23.8801 22.9133 23.2989C22.838 23.1421 21.3324 21.4263 19.5633 19.489L16.3639 15.9559L16.8814 15.2917C17.5684 14.4061 18.1706 13.17 18.4811 12.0353C18.8011 10.8545 18.8387 9.04644 18.5752 7.8841C17.7754 4.37863 15.1311 1.67573 11.6494 0.799362C10.6143 0.531839 9.19336 0.43959 8.16765 0.559515ZM10.8589 1.8879C13.5691 2.35837 15.9969 4.32328 16.9567 6.83246C17.7377 8.87116 17.6248 11.1589 16.6462 13.1607C15.6111 15.264 13.682 16.823 11.32 17.4411C10.3508 17.6994 8.53465 17.7271 7.58423 17.4965C5.93746 17.0998 4.64827 16.3987 3.54728 15.2825C2.06049 13.788 1.27945 11.9246 1.27004 9.86745C1.27004 8.15162 1.7029 6.70331 2.62509 5.34724C4.44125 2.68124 7.64069 1.34363 10.8589 1.8879Z"/>
</svg>
