<svg version="1.1" id="Capa_1" xmlns="http://www.w3.org/2000/svg" x="0px" y="0px"
     viewBox="0 0 444.456 444.456" style="enable-background:new 0 0 444.456 444.456;" xml:space="preserve">
<g>
	<path d="M398.754,160.028l-61.244-5.833V26.894c0-9.159-4.591-17.597-12.282-22.571c-7.689-4.974-17.269-5.702-25.622-1.945
		L25.795,125.495l0,0.001c-0.713,0.321-1.38,0.754-1.97,1.291c-1.563,1.421-2.455,3.436-2.455,5.549V402.06
		c0,3.867,2.939,7.1,6.789,7.466l365.497,34.809c0.846,0.081,1.691,0.12,2.535,0.12c6.654,0,13.136-2.48,18.098-6.992
		c5.59-5.083,8.796-12.332,8.796-19.888v-230.79C423.086,172.853,412.625,161.349,398.754,160.028z M217.525,142.768L322.51,95.564
		v57.203L217.525,142.768z M298.679,89.833l-111.338,50.061l-57.767-5.502l160.784-72.291c2.642-1.191,4.813-0.102,5.624,0.422
		c0.811,0.524,2.698,2.057,2.698,4.958V89.833z M305.758,16.059c3.746-1.685,7.875-1.371,11.324,0.86
		c3.45,2.231,5.428,5.867,5.428,9.976v52.223l-8.831,3.971V67.482c0-7.126-3.572-13.69-9.556-17.557
		c-5.982-3.866-13.432-4.426-19.922-1.502L99.389,131.517l-41.6-3.962L305.758,16.059z M408.086,417.577
		c0,3.388-1.381,6.51-3.888,8.79c-2.507,2.28-5.747,3.36-9.119,3.037L36.371,395.241V140.583l360.961,34.377
		c6.131,0.584,10.754,5.668,10.754,11.827V417.577z"/>
    <path d="M362.523,271.072c-14.896,0-27.014,13.083-27.014,29.165c0,16.081,12.119,29.165,27.014,29.165
		s27.014-13.083,27.014-29.165C389.537,284.155,377.419,271.072,362.523,271.072z M362.523,314.401
		c-6.625,0-12.014-6.354-12.014-14.165c0-7.811,5.39-14.165,12.014-14.165s12.014,6.354,12.014,14.165
		C374.537,308.047,369.148,314.401,362.523,314.401z"/>
</g>
    <g>
</g>
    <g>
</g>
    <g>
</g>
    <g>
</g>
    <g>
</g>
    <g>
</g>
    <g>
</g>
    <g>
</g>
    <g>
</g>
    <g>
</g>
    <g>
</g>
    <g>
</g>
    <g>
</g>
    <g>
</g>
    <g>
</g>
</svg>
